Coordinates
version=1
nRows=6
nColumns=63
inDegrees=yes

Units are S.I. units (second, meters, Newtons, ...)
If the header above contains a line with 'inDegrees', this indicates whether rotational values are in degrees (yes) or radians (no).

endheader
time	pelvis_tilt	pelvis_list	pelvis_rotation	pelvis_tx	pelvis_ty	pelvis_tz	hip_flexion_r	hip_adduction_r	hip_rotation_r	knee_angle_r	knee_angle_r_beta	ankle_angle_r	subtalar_angle_r	mtp_angle_r	hip_flexion_l	hip_adduction_l	hip_rotation_l	knee_angle_l	knee_angle_l_beta	ankle_angle_l	subtalar_angle_l	mtp_angle_l	L5_S1_Flex_Ext	L5_S1_Lat_Bending	L5_S1_axial_rotation	L4_L5_Flex_Ext	L4_L5_Lat_Bending	L4_L5_axial_rotation	L3_L4_Flex_Ext	L3_L4_Lat_Bending	L3_L4_axial_rotation	L2_L3_Flex_Ext	L2_L3_Lat_Bending	L2_L3_axial_rotation	L1_L2_Flex_Ext	L1_L2_Lat_Bending	L1_L2_axial_rotation	L1_T12_Flex_Ext	L1_T12_Lat_Bending	L1_T12_axial_rotation	Abs_r3	Abs_r2	Abs_r1	Abs_t1	Abs_t2	neck_flexion	neck_bending	neck_rotation	arm_flex_r	arm_add_r	arm_rot_r	elbow_flex_r	pro_sup_r	wrist_flex_r	wrist_dev_r	arm_flex_l	arm_add_l	arm_rot_l	elbow_flex_l	pro_sup_l	wrist_flex_l	wrist_dev_l
     22.43333333	     -2.43823167	     -4.61480242	     12.75899909	      2.22559410	      0.85038527	      0.31351819	     22.97715911	     -4.15064976	    -30.86148399	     13.27221154	      0.23164379	      1.90436015	      6.37468724	      0.00000000	     -6.13897424	     -2.84535988	      8.55461755	      6.15044076	      0.10734544	     12.96624365	     -6.25685332	      0.00000000	      0.02088502	      0.49688365	     -3.67192906	      0.03878557	      0.66085526	     -3.90142462	      0.03431200	      1.20812291	     -3.90142462	      0.02386949	      1.20812291	     -3.21293792	      0.01939383	      1.01324515	     -2.98344236	      0.01193370	      0.76967278	     -2.75394679	      0.14917960	      5.62084726	    -20.42216783	      0.00000000	      0.00000000	     -0.00000000	      0.00000000	     -0.00000000	     -7.55192136	    -11.87669831	     12.48883079	     28.90694208	     38.81926015	      0.00000000	      5.00000014	      4.53938726	    -10.57616607	      5.98254364	     40.54421371	     45.09981182	      0.00000000	      5.00000014
     22.46666667	     -2.59820073	     -3.62003018	     13.97442305	      2.25531757	      0.84299738	      0.31463043	     23.21246878	     -4.27196407	    -31.28499280	      7.26221024	      0.12674948	     -2.64937644	      7.46787789	      0.00000000	     -7.98357939	     -2.52671205	      9.77836906	      6.55202126	      0.11435434	     15.45725180	     -7.06981585	      0.00000000	      0.03114091	      0.37705524	     -3.85156961	      0.05783178	      0.50148347	     -4.09229271	      0.05116139	      0.91677211	     -4.09229271	      0.03559094	      0.91677211	     -3.37012341	      0.02891745	      0.76889104	     -3.12940031	      0.01779391	      0.58405856	     -2.88867721	      0.22243638	      4.26532427	    -21.42127468	      0.00000000	      0.00000000	     -0.00000000	      0.00000000	     -0.00000000	     -8.34218274	    -11.25004133	     11.76856475	     29.55428965	     38.56200609	      0.00000000	      5.00000014	      5.19730586	    -10.23979320	      5.91553431	     42.23566372	     45.18768790	      0.00000000	      5.00000014
     22.50000000	     -2.66793281	     -3.13830325	     15.33964431	      2.28634132	      0.83655465	      0.31560528	     23.66284772	     -4.51280637	    -31.41632430	      4.83512143	      0.08438879	     -4.98507937	      6.65564478	      0.00000000	     -9.22412051	     -2.57766661	     13.74038426	      8.39804320	      0.14657350	     16.63789780	    -12.09531503	      0.00000000	      0.03157955	      0.32552037	     -4.03398919	      0.05864638	      0.43294210	     -4.28611351	      0.05188204	      0.79147024	     -4.28611351	      0.03609227	      0.79147024	     -3.52974054	      0.02932477	      0.66380115	     -3.27761622	      0.01804455	      0.50423106	     -3.02549189	      0.22556956	      3.68235157	    -22.43583768	      0.00000000	      0.00000000	     -0.00000000	      0.00000000	     -0.00000000	     -9.68456411	    -10.11206249	      6.61508307	     30.94477952	     36.99371063	      0.00000000	      5.00000014	      5.49135553	     -9.24561477	      4.86296796	     43.16106993	     45.66583143	      0.00000000	      5.00000014
     22.53333333	     -2.62065738	     -3.18890509	     15.87918527	      2.31924238	      0.83221422	      0.31754895	     23.85917964	     -4.14540445	    -31.37401683	      4.62033771	      0.08064011	     -5.91890176	      5.33810490	      0.00000000	    -10.04391411	     -3.22726921	     13.84962140	     11.41393526	      0.19921075	     17.89217064	    -12.85205980	      0.00000000	      0.03148460	      0.34185693	     -4.06076382	      0.05847005	      0.45466972	     -4.31456156	      0.05172605	      0.83119094	     -4.31456156	      0.03598375	      0.83119094	     -3.55316834	      0.02923660	      0.69711465	     -3.29937061	      0.01799030	      0.52953638	     -3.04557287	      0.22489136	      3.86715395	    -22.58475015	      0.00000000	      0.00000000	     -0.00000000	      0.00000000	     -0.00000000	    -10.73832503	    -10.10268234	      6.37814500	     31.84590234	     36.87832504	      0.00000000	      5.00000014	      5.36953686	     -8.12693390	      5.03226058	     43.09946812	     45.75290435	      0.00000000	      5.00000014
     22.56666667	     -2.46030641	     -3.58405167	     16.48956819	      2.35332839	      0.83012895	      0.31984204	     23.72590051	     -3.28224771	    -27.26355343	      6.01281464	      0.10494341	     -6.62799469	     -2.96884996	      0.00000000	    -10.24195321	     -4.12811930	     14.88831164	     15.74329721	      0.27477237	     17.05701617	    -15.27515236	      0.00000000	      0.02907852	      0.40339837	     -4.10405754	      0.05400172	      0.53651984	     -4.36056113	      0.04777310	      0.98082281	     -4.36056113	      0.03323384	      0.98082281	     -3.59105034	      0.02700231	      0.82260996	     -3.33454675	      0.01661547	      0.62486408	     -3.07804315	      0.20770497	      4.56332308	    -22.82553679	      0.00000000	      0.00000000	     -0.00000000	      0.00000000	     -0.00000000	    -11.95828166	     -9.65152877	      3.55290456	     32.89722549	     35.79210949	      0.00000000	      5.00000014	      4.70257242	     -6.65678738	      4.31632404	     42.21588201	     46.11899142	      0.00000000	      5.00000014
     22.60000000	     -2.21123416	     -3.96641946	     16.21693627	      2.38874814	      0.83032250	      0.32357161	     23.23369690	     -2.01989180	    -24.23342529	      8.39223673	      0.14647216	     -6.84204092	     -9.16962849	      0.00000000	     -9.82110655	     -5.15392977	     12.93344336	     21.32782835	      0.37224083	     14.69808339	    -15.08388432	      0.00000000	      0.02502209	      0.46449063	     -3.99327561	      0.04646852	      0.61777254	     -4.24285534	      0.04110879	      1.12936252	     -4.24285534	      0.02859774	      1.12936252	     -3.49411616	      0.02323551	      0.94718930	     -3.24453644	      0.01429762	      0.71949599	     -2.99495671	      0.17873026	      5.25441092	    -22.20940098	      0.00000000	      0.00000000	     -0.00000000	      0.00000000	     -0.00000000	    -12.87140782	     -9.59213795	      3.09212187	     33.69442420	     35.06434263	      0.00000000	      5.00000014	      3.55204797	     -5.31321315	      3.83074501	     40.74213075	     46.43725149	      0.00000000	      5.00000014
